# This file uses centimeters as units for non-parametric coordinates.

mtllib Orangeslice.mtl
g default
v -0.347133 2.465656 -3.060580
v -0.028477 2.415189 -3.061068
v 0.290178 2.465656 -3.060541
v -0.634625 1.576210 -2.595539
v -0.028506 1.480214 -2.596467
v 0.577613 1.576209 -2.595465
v -0.862800 0.866697 -1.864404
v -0.028550 0.734571 -1.865684
v 0.805702 0.866696 -1.864306
v -1.009326 0.406569 -0.938745
v -0.028605 0.251246 -0.940250
v 0.952116 0.406568 -0.938628
v -1.059858 0.240870 0.090828
v -0.028667 0.077552 0.089246
v 1.002525 0.240868 0.090951
v -1.009450 0.385815 1.123533
v -0.028728 0.230492 1.122029
v 0.951993 0.385816 1.123651
v -0.863034 0.827218 2.058283
v -0.028784 0.695092 2.057003
v 0.805468 0.827218 2.058382
v -0.634946 1.521873 2.803577
v -0.028828 1.425878 2.802647
v 0.577291 1.521872 2.803649
v -0.347511 2.401779 3.286460
v -0.028856 2.351311 3.285974
v 0.289800 2.401779 3.286501
v -0.028468 3.418884 -3.214301
v -0.028866 3.351718 3.459373
v -0.330635 2.566708 -2.738534
v 0.273642 2.566707 -2.738496
v -0.603318 1.771224 -2.321320
v 0.546274 1.771223 -2.321251
v -0.819861 1.135884 -1.664625
v 0.762738 1.135883 -1.664531
v -0.958990 0.723355 -0.832260
v 0.901769 0.723356 -0.832149
v -1.006986 0.574669 0.094191
v 0.949654 0.574668 0.094307
v -0.959102 0.704679 1.023452
v 0.901658 0.704678 1.023563
v -0.820072 1.100372 1.863968
v 0.762528 1.100371 1.864062
v -0.603608 1.722366 2.533342
v 0.545984 1.722365 2.533413
v -0.330975 2.509292 2.966515
v 0.273301 2.509291 2.966553
v -0.028488 3.443177 -2.876114
v -0.028846 3.382814 3.121743
v -0.274329 2.548376 -2.735688
v 0.217335 2.548375 -2.735658
v -0.546388 1.755374 -2.316594
v 0.489345 1.755372 -2.316531
v -0.762167 1.123100 -1.659887
v 0.705043 1.123099 -1.659800
v -0.900681 0.713052 -0.829364
v 0.843459 0.713052 -0.829260
v -0.936921 0.654756 0.095001
v 0.879589 0.654756 0.095109
v -0.900792 0.694437 1.020356
v 0.843348 0.694436 1.020461
v -0.762377 1.087685 1.858980
v 0.704833 1.087684 1.859068
v -0.546678 1.706612 2.528305
v 0.489055 1.706612 2.528370
v -0.274669 2.491021 2.963307
v 0.216995 2.491020 2.963337
v -0.028488 3.443162 -2.874660
v -0.028846 3.382828 3.120290
v -0.028528 3.436478 -2.210511
v -0.028548 3.433040 -1.868894
v -0.028580 3.427625 -1.330883
v -0.028621 3.420715 -0.644324
v -0.028667 3.412995 0.122830
v -0.028713 3.405274 0.889987
v -0.028754 3.398364 1.576543
v -0.028786 3.392950 2.114554
v -0.028806 3.389512 2.456172
v 0.150947 2.851703 -0.648532
v 0.048998 3.179720 -0.660785
v 0.026378 3.213259 0.120821
v 0.163635 2.793660 0.869434
v 0.040819 3.189131 0.900390
v -0.221059 2.793660 0.869411
v -0.098246 3.189131 0.900382
v -0.083711 3.213260 0.120815
v -0.208189 2.851703 -0.648554
v -0.106239 3.179720 -0.660794
v 0.101915 3.012300 -0.863001
v 0.100056 3.002888 1.114104
v -0.156063 3.002428 1.114077
v -0.159132 3.012300 -0.863016
v -0.398004 2.267099 -1.496566
v -0.325123 2.496050 -1.463879
v 0.340862 2.267098 -1.496522
v 0.267978 2.496048 -1.463844
v -0.099018 3.173620 -0.029368
v -0.113830 3.136153 0.288192
v 0.041703 3.173621 -0.029360
v 0.056476 3.136152 0.288202
v -0.402065 2.222553 1.720264
v -0.319141 2.483735 1.688339
v -0.540395 1.727072 2.523285
v -0.539676 1.729413 2.522710
v -0.542752 1.717934 2.534583
v -0.542583 1.718423 2.534854
v 0.344539 2.222553 1.720309
v 0.261620 2.483735 1.688374
v 0.482773 1.727070 2.523348
v 0.482054 1.729413 2.522773
v 0.485129 1.717933 2.534647
v 0.484960 1.718421 2.534918
vt 0.103066 0.109041
vt 0.081406 0.103323
vt 0.103612 0.030903
vt 0.124783 0.103895
vt 0.102579 0.203198
vt 0.061672 0.195417
vt 0.143617 0.196548
vt 0.101815 0.298623
vt 0.045762 0.291135
vt 0.157959 0.293026
vt 0.101000 0.394055
vt 0.035205 0.389070
vt 0.166852 0.391400
vt 0.100167 0.489388
vt 0.031044 0.488278
vt 0.169283 0.490769
vt 0.099328 0.584754
vt 0.033614 0.587609
vt 0.164969 0.589970
vt 0.098491 0.680263
vt 0.042548 0.685926
vt 0.154322 0.687870
vt 0.097678 0.775824
vt 0.056823 0.782327
vt 0.138418 0.783539
vt 0.097142 0.870019
vt 0.075579 0.875020
vt 0.118650 0.875635
vt 0.096552 0.948123
vt 0.913782 0.637152
vt 0.935407 0.606529
vt 0.854938 0.576988
vt 0.890342 0.513793
vt 0.781287 0.531055
vt 0.820612 0.438738
vt 0.698249 0.500484
vt 0.732319 0.387424
vt 0.610422 0.485982
vt 0.632820 0.364215
vt 0.522074 0.488171
vt 0.530429 0.371547
vt 0.437704 0.507690
vt 0.434074 0.409649
vt 0.362603 0.545049
vt 0.352807 0.476220
vt 0.303326 0.600195
vt 0.295084 0.566189
vt 0.951258 0.709229
vt 0.267857 0.671534
vt 0.915190 0.632690
vt 0.932748 0.607730
vt 0.855937 0.572709
vt 0.887752 0.515716
vt 0.782034 0.526977
vt 0.818394 0.441353
vt 0.698879 0.496549
vt 0.730741 0.390567
vt 0.611015 0.482083
vt 0.632053 0.367612
vt 0.522638 0.484179
vt 0.530508 0.374870
vt 0.438176 0.503485
vt 0.434885 0.412573
vt 0.362856 0.540558
vt 0.354099 0.478500
vt 0.303203 0.595426
vt 0.296529 0.567715
vt 0.951101 0.709220
vt 0.268032 0.671544
vt 0.878812 0.705233
vt 0.841315 0.703165
vt 0.781821 0.699883
vt 0.858017 0.858529
vt 0.885180 0.858577
vt 0.888882 0.923516
vt 0.450713 0.681620
vt 0.387604 0.678139
vt 0.347225 0.675912
vt 0.708744 0.652393
vt 0.707391 0.668498
vt 0.824364 0.926251
vt 0.530412 0.642984
vt 0.530406 0.661207
vt 0.529324 0.658102
vt 0.529778 0.669922
vt 0.820591 0.843625
vt 0.704226 0.667421
vt 0.704555 0.677931
vt 0.729856 0.650643
vt 0.506866 0.638570
vt 0.506949 0.654337
vt 0.724718 0.666436
vt 0.781915 0.623419
vt 0.781907 0.629988
vt 0.797995 0.585553
vt 0.796605 0.595375
vt 0.626024 0.670251
vt 0.608785 0.669309
vt 0.628310 0.658737
vt 0.610735 0.657775
vt 0.445254 0.604048
vt 0.445751 0.611110
vt 0.363156 0.542227
vt 0.363190 0.542418
vt 0.361995 0.541350
vt 0.361958 0.541384
vt 0.443820 0.564458
vt 0.444448 0.575124
vt 0.354505 0.480923
vt 0.354552 0.481200
vt 0.353268 0.479788
vt 0.353232 0.479844
vt 0.146346 0.091399
vt 0.103611 0.009856
vt 0.060674 0.090978
vt 0.040277 0.187116
vt 0.165022 0.188791
vt 0.024141 0.285298
vt 0.179647 0.287686
vt 0.013360 0.385912
vt 0.188740 0.388768
vt 0.009095 0.488039
vt 0.191231 0.491073
vt 0.011725 0.590284
vt 0.186811 0.593185
vt 0.020857 0.691267
vt 0.175945 0.693737
vt 0.035414 0.790074
vt 0.159804 0.791869
vt 0.053994 0.887448
vt 0.139393 0.887968
vt 0.096539 0.969143
vt 0.891077 0.962031
vt 0.883940 0.969132
vt 0.915530 0.858631
vt 0.919056 0.912421
vt 0.917566 0.917217
vt 0.945881 0.858685
vt 0.950192 0.916860
vt 0.953359 0.959592
vt 0.921262 0.917159
vt 0.961970 0.966448
vt 0.973043 0.858733
vt 0.950192 0.916860
vt 0.953358 0.959592
vt 0.961977 0.966572
vt 0.919056 0.912421
vt 0.921261 0.917159
vt 0.888881 0.923516
vt 0.891077 0.962031
vt 0.917566 0.917217
vt 0.883939 0.969132
vt 0.820170 0.919090
vt 0.826717 0.984034
vt 0.819870 0.991614
vt 0.814511 0.994835
vt 0.816879 0.993194
vt 0.815892 0.744633
vt 0.812044 0.993128
vt 0.801838 0.982246
vt 0.805105 0.925000
vt 0.809524 0.917535
vt 0.809154 0.990413
vt 0.809852 0.841825
vt 0.809953 0.841625
vt 0.820588 0.843627
vt 0.824362 0.926252
vt 0.820169 0.919091
vt 0.826716 0.984034
vt 0.819869 0.991614
vt 0.815886 0.744633
vt 0.816879 0.993194
vt 0.814511 0.994834
vt 0.812044 0.993128
vt 0.809855 0.841826
vt 0.805106 0.925002
vt 0.809525 0.917536
vt 0.809955 0.841627
vt 0.801864 0.982210
vt 0.809155 0.990413
vn 0.000056 -0.384269 -0.923221
vn -0.062201 -0.383827 -0.921308
vn 0.000061 -0.150920 -0.988546
vn 0.062313 -0.383827 -0.921300
vn 0.000047 -0.616814 -0.787109
vn -0.098415 -0.613817 -0.783290
vn 0.098508 -0.613816 -0.783279
vn 0.000034 -0.819041 -0.573735
vn -0.129497 -0.812141 -0.568909
vn 0.129563 -0.812141 -0.568894
vn 0.000018 -0.951966 -0.306205
vn -0.149538 -0.941259 -0.302770
vn 0.149573 -0.941259 -0.302752
vn 0.000000 -0.999949 -0.010063
vn -0.156434 -0.987638 -0.009949
vn 0.156435 -0.987638 -0.009930
vn -0.000017 -0.957936 0.286983
vn -0.149573 -0.947162 0.283747
vn 0.149539 -0.947162 0.283765
vn -0.000033 -0.830423 0.557134
vn -0.129564 -0.823426 0.552433
vn 0.129498 -0.823427 0.552448
vn -0.000047 -0.632531 0.774535
vn -0.098510 -0.629457 0.770765
vn 0.098416 -0.629458 0.770777
vn -0.000057 -0.402773 0.915300
vn -0.062316 -0.402292 0.913388
vn 0.062203 -0.402293 0.913395
vn -0.000063 -0.170782 0.985309
vn 0.952581 0.300092 -0.050342
vn 0.952573 0.300121 -0.050316
vn 0.948100 0.315905 -0.036198
vn 0.948100 0.315905 -0.036198
vn -0.952575 0.300093 -0.050455
vn -0.952567 0.300122 -0.050429
vn -0.962679 0.260751 -0.072511
vn -0.962680 0.260747 -0.072512
vn 0.962689 0.260745 -0.072398
vn 0.962688 0.260749 -0.072397
vn -0.974223 0.213537 -0.072744
vn -0.974224 0.213533 -0.072743
vn 0.974233 0.213531 -0.072627
vn 0.974232 0.213535 -0.072629
vn -0.983516 0.175279 -0.044425
vn -0.983516 0.175277 -0.044423
vn 0.983522 0.175274 -0.044306
vn 0.983522 0.175276 -0.044308
vn -0.987057 0.160365 0.001555
vn -0.987056 0.160365 0.001555
vn 0.987057 0.160361 0.001673
vn 0.987057 0.160361 0.001673
vn -0.983521 0.174351 0.047826
vn -0.983522 0.174349 0.047824
vn 0.983516 0.174347 0.047942
vn 0.983516 0.174348 0.047944
vn -0.974232 0.212030 0.076912
vn -0.974233 0.212026 0.076910
vn 0.974224 0.212026 0.077026
vn 0.974223 0.212030 0.077027
vn -0.962688 0.259238 0.077631
vn -0.962689 0.259234 0.077632
vn 0.962680 0.259234 0.077746
vn 0.962679 0.259238 0.077744
vn -0.952573 0.299047 0.056348
vn -0.952581 0.299018 0.056373
vn 0.952575 0.299017 0.056485
vn 0.952567 0.299046 0.056460
vn -0.948100 0.315112 0.042550
vn -0.948100 0.315112 0.042550
vn -0.948095 0.315906 -0.036312
vn -0.948095 0.315906 -0.036312
vn 0.948095 0.315111 0.042663
vn 0.948095 0.315111 0.042663
vn -0.043450 0.356271 0.933372
vn -0.042641 0.353948 0.934292
vn -0.000065 0.161157 0.986929
vn -0.000065 0.161157 0.986929
vn 0.043327 0.356276 0.933376
vn 0.042517 0.353952 0.934297
vn 0.096030 0.577198 0.810938
vn 0.096007 0.577057 0.811041
vn -0.096116 0.577056 0.811029
vn -0.096138 0.577193 0.810929
vn 0.131417 0.796078 0.590753
vn 0.131406 0.796005 0.590854
vn -0.131490 0.796002 0.590839
vn -0.131502 0.796075 0.590738
vn -0.212504 0.940242 0.266058
vn -0.211933 0.940269 0.266419
vn 0.211893 0.940271 0.266444
vn 0.212459 0.940244 0.266087
vn -0.478991 0.877776 0.008806
vn -0.478991 0.877775 0.008806
vn 0.478989 0.877776 0.008863
vn 0.478989 0.877776 0.008863
vn -0.212471 0.945407 -0.247108
vn -0.211902 0.945441 -0.247467
vn 0.211933 0.945440 -0.247441
vn 0.212505 0.945406 -0.247080
vn 0.131496 0.807804 -0.574597
vn 0.131484 0.807734 -0.574698
vn -0.131419 0.807734 -0.574713
vn -0.131431 0.807804 -0.574612
vn 0.097925 0.603853 -0.791058
vn 0.114877 0.708188 -0.696616
vn -0.114803 0.708186 -0.696629
vn -0.097834 0.603853 -0.791069
vn 0.074744 0.462268 -0.883585
vn 0.042583 0.372174 -0.927186
vn 0.043396 0.374484 -0.926217
vn -0.074635 0.462269 -0.883593
vn -0.052118 0.470351 -0.880939
vn 0.000071 0.180991 -0.983485
vn 0.000071 0.180991 -0.983485
vn -0.042462 0.372175 -0.927191
vn -0.043276 0.374488 -0.926221
vn 0.956525 0.290559 -0.025213
vn 0.955879 0.292483 -0.027360
vn 0.964160 0.265306 0.002728
vn -0.956521 0.290560 -0.025327
vn -0.955876 0.292484 -0.027474
vn -0.953517 0.300746 -0.018919
vn -0.954419 0.298038 -0.016061
vn 0.954421 0.298037 -0.015947
vn 0.953519 0.300745 -0.018806
vn -0.953945 0.299956 -0.003895
vn -0.951920 0.306311 -0.004740
vn 0.953867 0.300205 -0.003753
vn 0.953946 0.299955 -0.003781
vn -0.953350 0.301851 0.003186
vn -0.950911 0.309414 -0.005505
vn 0.955088 0.296210 0.008110
vn 0.953350 0.301850 0.003299
vn -0.953549 0.301236 0.000838
vn -0.951539 0.307527 -0.001000
vn -0.950089 0.311948 0.004330
vn 0.950912 0.309414 -0.005392
vn 0.951539 0.307527 -0.000886
vn 0.950089 0.311947 0.004444
vn 0.950641 0.310229 -0.006287
vn -0.951381 0.307952 0.006320
vn 0.951380 0.307951 0.006434
vn 0.951014 0.308854 0.013492
vn 0.950699 0.309783 0.014372
vn -0.953875 0.300050 0.009657
vn -0.954333 0.298743 -0.000762
vn -0.953425 0.301622 0.002324
vn -0.953980 0.299726 0.009239
vn 0.953248 0.302173 0.003023
vn 0.954094 0.299362 0.009280
vn 0.951933 0.306128 0.010416
vn -0.954344 0.297070 0.031263
vn -0.954434 0.297614 0.021959
vn 0.954340 0.297068 0.031377
vn 0.951997 0.305120 0.024548
vn -0.954654 0.295370 0.037313
vn -0.955880 0.291871 0.033240
vn -0.956526 0.289991 0.031054
vn 0.954650 0.295369 0.037427
vn 0.951565 0.303795 0.047243
vn -0.964161 0.265307 0.002612
vn -0.964160 0.265307 0.002613
vn 0.956522 0.289990 0.031169
vn 0.964161 0.265306 0.002728
vn 0.955876 0.291870 0.033354
vn 0.955322 0.295418 0.009429
vn 0.955589 0.294674 0.003983
vn 0.953549 0.301235 0.000952
vn 0.954410 0.298494 -0.001585
vn 0.954202 0.299164 -0.000439
vn 0.953722 0.300514 0.010230
vn -0.954410 0.298495 -0.001699
vn -0.950971 0.308985 0.013474
vn -0.955590 0.294675 0.003869
vn -0.955323 0.295418 0.009315
vn -0.955089 0.296211 0.007997
vn -0.953867 0.300206 -0.003867
vn -0.951843 0.306547 -0.004840
vn -0.950640 0.310230 -0.006400
vn 0.951921 0.306310 -0.004628
vn 0.951844 0.306546 -0.004727
vn -0.950700 0.309784 0.014258
vn -0.951895 0.306250 0.010353
vn -0.951784 0.306593 0.010426
vn -0.952000 0.305121 0.024434
vn -0.952001 0.305118 0.024445
vn -0.951569 0.303794 0.047183
vn 0.052220 0.470370 -0.880923
vn 0.954431 0.297613 0.022073
vn 0.951998 0.305118 0.024559
vn 0.951783 0.306592 0.010539
s 1
g pSphere2
usemtl lambert4SG
f 2/1/1 1/2/2 28/3/3
f 3/4/4 2/1/1 28/3/3
f 2/1/1 5/5/5 4/6/6 1/2/2
f 6/7/7 5/5/5 2/1/1 3/4/4
f 5/5/5 8/8/8 7/9/9 4/6/6
f 9/10/10 8/8/8 5/5/5 6/7/7
f 8/8/8 11/11/11 10/12/12 7/9/9
f 12/13/13 11/11/11 8/8/8 9/10/10
f 11/11/11 14/14/14 13/15/15 10/12/12
f 15/16/16 14/14/14 11/11/11 12/13/13
f 14/14/14 17/17/17 16/18/18 13/15/15
f 18/19/19 17/17/17 14/14/14 15/16/16
f 17/17/17 20/20/20 19/21/21 16/18/18
f 21/22/22 20/20/20 17/17/17 18/19/19
f 20/20/20 23/23/23 22/24/24 19/21/21
f 24/25/25 23/23/23 20/20/20 21/22/22
f 23/23/23 26/26/26 25/27/27 22/24/24
f 27/28/28 26/26/26 23/23/23 24/25/25
f 26/26/26 29/29/29 25/27/27
f 29/29/29 26/26/26 27/28/28
s 2
f 31/113/30 3/4/31 28/3/32 48/114/33
s 3
f 30/115/34 1/2/35 4/6/36 32/116/37
s 2
f 33/117/38 6/7/39 3/4/31 31/113/30
s 3
f 32/116/37 4/6/36 7/9/40 34/118/41
s 2
f 35/119/42 9/10/43 6/7/39 33/117/38
s 3
f 34/118/41 7/9/40 10/12/44 36/120/45
s 2
f 37/121/46 12/13/47 9/10/43 35/119/42
s 3
f 36/120/45 10/12/44 13/15/48 38/122/49
s 2
f 39/123/50 15/16/51 12/13/47 37/121/46
s 3
f 38/122/49 13/15/48 16/18/52 40/124/53
s 2
f 41/125/54 18/19/55 15/16/51 39/123/50
s 3
f 40/124/53 16/18/52 19/21/56 42/126/57
s 2
f 43/127/58 21/22/59 18/19/55 41/125/54
s 3
f 42/126/57 19/21/56 22/24/60 44/128/61
s 2
f 45/129/62 24/25/63 21/22/59 43/127/58
s 3
f 44/128/61 22/24/60 25/27/64 46/130/65
s 2
f 47/131/66 27/28/67 24/25/63 45/129/62
s 3
f 46/130/65 25/27/64 29/29/68 49/132/69
f 48/114/70 28/3/71 1/2/35 30/115/34
s 2
f 49/132/72 29/29/73 27/28/67 47/131/66
s 4
f 51/51/74 31/31/75 48/48/76 68/68/77
f 50/50/78 30/30/79 32/32/80 52/52/81
f 53/53/82 33/33/83 31/31/75 51/51/74
f 52/52/81 32/32/80 34/34/84 54/54/85
f 55/55/86 35/35/87 33/33/83 53/53/82
f 54/54/85 34/34/84 36/36/88 56/56/89
f 57/57/90 37/37/91 35/35/87 55/55/86
f 56/56/89 36/36/88 38/38/92 58/58/93
f 59/59/94 39/39/95 37/37/91 57/57/90
f 58/58/93 38/38/92 40/40/96 60/60/97
f 61/61/98 41/41/99 39/39/95 59/59/94
f 60/60/97 40/40/96 42/42/100 62/62/101
f 63/63/102 43/43/103 41/41/99 61/61/98
f 62/62/101 42/42/100 44/44/104 64/64/105
f 65/65/106 45/45/107 43/43/103 63/63/102
f 106/106/108 44/44/104 46/46/109 66/66/110
f 112/112/111 45/45/107 111/111/112
f 66/66/110 46/46/109 49/49/113 69/69/114
f 68/68/77 48/48/76 30/30/79 50/50/78
f 69/69/114 49/49/113 47/47/115 67/67/116
s 7
f 70/70/117 51/51/118 68/68/119
s 8
f 70/70/120 50/50/121 52/52/122 71/71/123
s 7
f 70/70/117 71/71/124 53/53/125 51/51/118
s 8
f 94/81/126 52/86/122 93/153/127
s 7
f 71/71/124 72/72/128 96/96/129 53/53/125
s 8
f 92/154/130 94/81/126 93/153/127 87/155/131
s 7
f 72/72/128 80/80/132 89/89/133 96/96/129
s 8
f 86/156/134 97/157/135 58/158/136
s 7
f 79/79/137 99/99/138 59/59/139 57/57/140
s 8
f 58/158/136 98/159/141 86/156/134
s 7
f 59/59/139 100/100/142 82/82/143 61/61/144
s 8
f 76/76/145 85/85/146 91/91/147 102/102/148
s 7
f 90/160/149 108/161/150 107/162/151 82/163/143
s 8
f 76/76/145 102/102/148 104/104/152 77/77/153
s 7
f 108/161/150 110/164/154 109/165/155 107/162/151
s 8
f 77/77/153 104/104/152 106/106/156 66/66/157 78/78/158
s 7
f 110/110/154 112/112/159 111/111/160 109/109/155
s 8
f 78/78/158 66/66/157 69/69/161
f 70/70/120 68/68/162 50/50/121
s 7
f 78/78/163 69/69/164 67/67/165
f 72/73/128 73/74/166 80/75/132
f 79/133/137 89/134/133 80/75/132
f 73/74/166 74/135/167 81/136/168 99/137/138 79/133/137 80/75/132
f 74/135/167 75/138/169 83/139/170 82/140/143 100/141/142 81/136/168
f 83/139/170 90/142/149 82/140/143
f 75/138/169 76/143/171 83/139/170
s 8
f 75/138/172 85/144/146 76/143/145
f 84/145/173 91/146/147 85/144/146
f 74/135/174 86/147/134 98/148/141 84/145/173 85/144/146 75/138/172
f 73/74/175 88/149/176 87/150/131 97/151/135 86/147/134 74/135/174
f 88/149/176 92/152/130 87/150/131
f 72/73/177 88/149/176 73/74/175
f 72/72/177 94/94/126 92/92/130 88/88/176
f 71/71/123 52/52/122 94/94/126 72/72/177
f 93/93/127 52/52/122 54/54/178
f 87/87/131 93/93/127 54/54/178 56/56/179
s 7
f 95/95/180 79/79/137 57/57/140 55/55/181
f 53/53/125 95/95/180 55/55/181
f 53/166/125 96/167/129 95/168/180
f 96/167/129 89/169/133 79/170/137 95/168/180
s 8
f 58/58/136 97/97/135 87/87/131 56/56/179
f 84/84/173 98/98/141 58/58/136 60/60/182
s 7
f 59/171/139 99/172/138 81/173/168
f 81/173/168 100/174/142 59/171/139
s 8
f 101/101/183 84/84/173 60/60/182 62/62/184
f 103/103/185 101/101/183 62/62/184 64/64/186
f 105/105/187 103/103/185 64/64/186
s 4
f 64/64/105 44/44/104 105/105/188
f 105/105/188 44/44/104 106/106/108
s 8
f 106/106/156 104/104/152 103/103/185 105/105/187
f 104/175/152 102/176/148 101/177/183 103/178/185
f 102/176/148 91/179/147 84/180/173 101/177/183
s 7
f 83/83/170 76/76/171 108/108/150 90/90/149
f 76/76/171 77/77/189 110/110/154 108/108/150
f 77/77/189 78/78/163 67/67/165 112/112/159 110/110/154
s 4
f 67/67/116 47/47/115 45/45/107 112/112/111
f 111/111/112 45/45/107 65/65/106
s 7
f 109/109/155 111/111/160 65/65/190
f 107/107/151 109/109/155 65/65/190 63/63/191
f 82/82/143 107/107/151 63/63/191 61/61/144
