# This file uses centimeters as units for non-parametric coordinates.

mtllib Star Sparkle.mtl
g default
v 0.992315 1.866893 -0.801970
v 0.997854 1.799393 -0.964819
v 0.992315 1.731894 -0.801970
v 0.989645 1.537461 -0.732839
v 0.992315 1.731894 -0.663708
v 0.997853 1.799393 -0.500860
v 0.992315 1.866893 -0.663708
v 0.989645 2.061326 -0.732839
v 0.978145 1.866893 -0.801970
v 0.984336 1.799393 -0.964819
v 0.978145 1.731894 -0.801970
v 0.976129 1.537461 -0.732839
v 0.978145 1.731894 -0.663708
v 0.984336 1.799393 -0.500859
v 0.978145 1.866893 -0.663708
v 0.976129 2.061326 -0.732839
v 1.025276 1.799393 -0.732839
v 0.945185 1.799393 -0.732839
v 1.012278 1.275538 -0.263927
v 1.033422 1.017839 -0.885647
v 1.012278 0.760140 -0.263927
v 1.002086 0.017839 0.000000
v 1.012278 0.760140 0.263927
v 1.033421 1.017839 0.885646
v 1.012278 1.275538 0.263927
v 1.002086 2.017839 -0.000000
v 0.958178 1.275538 -0.263927
v 0.981815 1.017839 -0.885647
v 0.958178 0.760140 -0.263927
v 0.950481 0.017838 -0.000000
v 0.958178 0.760140 0.263927
v 0.981815 1.017839 0.885647
v 0.958178 1.275538 0.263927
v 0.950482 2.017839 -0.000000
v 1.138116 1.017839 0.000000
v 0.832345 1.017839 0.000000
vt 0.618250 0.606734
vt 0.937801 0.490480
vt 0.929967 0.488162
vt 0.613382 0.603942
vt 0.613142 0.401089
vt 0.608271 0.399605
vt 0.493013 0.000000
vt 0.488054 0.001341
vt 0.393792 0.408224
vt 0.390232 0.406647
vt 0.025837 0.533677
vt 0.024465 0.530693
vt 0.400747 0.620154
vt 0.397168 0.617188
vt 0.521797 1.000000
vt 0.516797 0.993746
vt 0.521178 0.516150
vt 0.491563 0.500726
vt 0.618250 0.606734
vt 0.937801 0.490480
vt 0.929967 0.488162
vt 0.613382 0.603942
vt 0.613142 0.401089
vt 0.608271 0.399605
vt 0.493013 0.000000
vt 0.488054 0.001341
vt 0.393792 0.408224
vt 0.390232 0.406647
vt 0.025837 0.533677
vt 0.024465 0.530693
vt 0.400747 0.620154
vt 0.397168 0.617188
vt 0.521797 1.000000
vt 0.516797 0.993746
vt 0.521178 0.516150
vt 0.491563 0.500726
vn 0.868204 0.343797 -0.357808
vn 0.873948 0.000000 -0.486020
vn -0.844710 0.000000 -0.535224
vn -0.868593 0.311795 -0.385138
vn 0.868203 -0.343797 -0.357808
vn -0.868592 -0.311794 -0.385138
vn 0.857937 -0.513755 0.000000
vn -0.868183 -0.496244 -0.000000
vn 0.868204 -0.343794 0.357808
vn -0.868593 -0.311793 0.385138
vn 0.873949 0.000000 0.486019
vn -0.844713 0.000000 0.535219
vn 0.868205 0.343794 0.357808
vn -0.868593 0.311793 0.385137
vn 0.857939 0.513752 -0.000000
vn -0.868184 0.496243 -0.000001
vn 1.000000 0.000000 0.000000
vn -1.000000 0.000000 -0.000000
vn 0.868204 0.343797 -0.357807
vn 0.873948 0.000000 -0.486021
vn -0.844710 0.000000 -0.535225
vn -0.868593 0.311794 -0.385137
vn 0.868204 -0.343797 -0.357808
vn -0.868593 -0.311794 -0.385138
vn 0.857938 -0.513753 0.000000
vn -0.868183 -0.496244 -0.000000
vn 0.868204 -0.343794 0.357808
vn -0.868593 -0.311793 0.385138
vn 0.873949 -0.000000 0.486019
vn -0.844713 0.000000 0.535219
vn 0.868205 0.343794 0.357807
vn -0.868593 0.311793 0.385137
vn 0.857939 0.513752 -0.000000
vn -0.868184 0.496243 0.000000
vn 1.000000 0.000000 0.000000
vn -1.000000 0.000000 -0.000000
s 1
g pasted__pCylinder1
usemtl pasted__lambert2SG1
f 1/1/1 2/2/2 10/3/3 9/4/4
f 2/2/2 3/5/5 11/6/6 10/3/3
f 3/5/5 4/7/7 12/8/8 11/6/6
f 4/7/7 5/9/9 13/10/10 12/8/8
f 5/9/9 6/11/11 14/12/12 13/10/10
f 6/11/11 7/13/13 15/14/14 14/12/12
f 7/13/13 8/15/15 16/16/16 15/14/14
f 8/15/15 1/1/1 9/4/4 16/16/16
f 2/2/2 1/1/1 17/17/17
f 3/5/5 2/2/2 17/17/17
f 4/7/7 3/5/5 17/17/17
f 5/9/9 4/7/7 17/17/17
f 6/11/11 5/9/9 17/17/17
f 7/13/13 6/11/11 17/17/17
f 8/15/15 7/13/13 17/17/17
f 1/1/1 8/15/15 17/17/17
f 9/4/4 10/3/3 18/18/18
f 10/3/3 11/6/6 18/18/18
f 11/6/6 12/8/8 18/18/18
f 12/8/8 13/10/10 18/18/18
f 13/10/10 14/12/12 18/18/18
f 14/12/12 15/14/14 18/18/18
f 15/14/14 16/16/16 18/18/18
f 16/16/16 9/4/4 18/18/18
s 2
usemtl lambert2SG
f 19/19/19 20/20/20 28/21/21 27/22/22
f 20/20/20 21/23/23 29/24/24 28/21/21
f 21/23/23 22/25/25 30/26/26 29/24/24
f 22/25/25 23/27/27 31/28/28 30/26/26
f 23/27/27 24/29/29 32/30/30 31/28/28
f 24/29/29 25/31/31 33/32/32 32/30/30
f 25/31/31 26/33/33 34/34/34 33/32/32
f 26/33/33 19/19/19 27/22/22 34/34/34
f 20/20/20 19/19/19 35/35/35
f 21/23/23 20/20/20 35/35/35
f 22/25/25 21/23/23 35/35/35
f 23/27/27 22/25/25 35/35/35
f 24/29/29 23/27/27 35/35/35
f 25/31/31 24/29/29 35/35/35
f 26/33/33 25/31/31 35/35/35
f 19/19/19 26/33/33 35/35/35
f 27/22/22 28/21/21 36/36/36
f 28/21/21 29/24/24 36/36/36
f 29/24/24 30/26/26 36/36/36
f 30/26/26 31/28/28 36/36/36
f 31/28/28 32/30/30 36/36/36
f 32/30/30 33/32/32 36/36/36
f 33/32/32 34/34/34 36/36/36
f 34/34/34 27/22/22 36/36/36
